<?xml version="1.0" standalone="no"?>
<!DOCTYPE svg PUBLIC "-//W3C//DTD SVG 20010904//EN"
 "http://www.w3.org/TR/2001/REC-SVG-20010904/DTD/svg10.dtd">
<svg version="1.0" xmlns="http://www.w3.org/2000/svg"
 width="1024.000000pt" height="1024.000000pt" viewBox="0 0 1024.000000 1024.000000"
 preserveAspectRatio="xMidYMid meet">

<g transform="translate(0.000000,1024.000000) scale(0.100000,-0.100000)"
fill="#000000" stroke="none">
<path d="M3850 8612 c-56 -6 -71 -14 -90 -45 -36 -58 -28 -88 46 -169 129
-143 214 -292 255 -450 24 -89 32 -285 16 -380 -8 -46 -12 -50 -130 -141 -67
-52 -235 -193 -372 -313 -367 -321 -439 -372 -612 -430 -95 -32 -281 -46 -300
-23 -6 8 -23 50 -38 94 -56 169 -175 384 -296 532 -159 194 -422 385 -633 459
-107 38 -185 -18 -153 -109 5 -17 39 -68 74 -115 211 -275 304 -464 335 -676
14 -103 1 -194 -43 -286 -31 -66 -126 -173 -211 -237 -92 -71 -96 -162 -9
-196 75 -31 293 -15 469 33 40 11 78 18 83 15 5 -4 9 0 9 7 0 10 3 9 10 -2 8
-12 10 -12 15 2 4 9 13 19 21 22 10 4 12 2 8 -6 -5 -7 -2 -9 9 -5 9 3 18 1 21
-6 3 -7 4 -3 1 9 -4 15 1 24 17 31 31 13 47 6 41 -17 -7 -25 -19 -25 -32 -2
-9 15 -10 15 -11 -4 0 -11 -6 -28 -13 -38 -12 -17 -14 -17 -20 -2 -4 9 -12 16
-18 16 -8 0 -7 -5 2 -17 8 -9 9 -14 4 -11 -6 4 -19 -1 -30 -9 -14 -11 -16 -17
-7 -20 6 -3 12 -9 12 -14 0 -6 -4 -8 -9 -5 -5 4 -12 0 -14 -6 -3 -7 -6 -4 -7
7 -1 19 -2 19 -10 -2 -6 -14 -15 -20 -27 -17 -14 4 -27 -13 -61 -82 l-43 -87
48 6 c27 3 105 24 172 47 68 22 127 40 131 38 5 -2 48 -40 97 -84 257 -237
588 -463 687 -469 17 -1 49 -10 70 -19 21 -10 55 -16 75 -15 20 1 41 1 48 0
15 -1 7 -62 -14 -109 -8 -18 -13 -44 -11 -59 3 -22 11 -31 47 -50 2 -1 -48
-84 -110 -185 -62 -101 -117 -202 -122 -224 l-10 -41 -126 -6 c-323 -14 -576
-123 -753 -325 -58 -67 -140 -230 -158 -317 -33 -154 0 -373 77 -517 36 -66
36 -66 18 -94 -11 -17 -20 -24 -23 -16 -2 7 -8 10 -13 6 -5 -3 -9 1 -9 8 0 7
-10 2 -21 -12 -15 -18 -18 -19 -11 -5 14 28 -2 55 -29 48 -12 -4 -18 -11 -15
-20 3 -8 1 -11 -4 -8 -6 4 -18 -2 -28 -11 -16 -17 -16 -18 0 -11 12 4 18 2 18
-9 0 -8 -4 -12 -10 -9 -5 3 -10 1 -10 -6 0 -7 -9 -3 -20 9 -27 29 -34 28 -15
-2 15 -22 15 -25 -1 -34 -15 -8 -14 -11 7 -26 13 -9 20 -16 15 -16 -14 0 34
-39 56 -46 22 -7 20 -29 -13 -127 -73 -220 53 -380 384 -486 53 -17 103 -31
110 -31 6 0 29 -5 50 -11 32 -9 50 -27 121 -122 161 -217 344 -359 512 -398
152 -35 201 -49 468 -136 268 -87 497 -148 671 -180 145 -26 726 -26 895 0
326 50 493 94 779 204 107 41 220 80 250 87 31 7 54 16 52 21 -2 4 16 23 39
41 47 38 92 44 121 18 16 -15 25 -14 116 15 219 68 469 217 639 382 45 44 90
79 101 79 51 0 245 23 301 36 84 19 133 45 176 95 57 67 71 122 71 281 0 126
2 138 22 160 12 12 23 36 26 52 2 19 10 30 22 32 10 1 29 15 42 31 37 44 116
174 116 189 0 8 5 14 10 14 6 0 6 5 0 13 -6 6 -11 26 -11 44 0 24 5 32 21 37
21 6 21 7 4 17 -10 6 -25 8 -34 5 -13 -6 -14 -4 -3 10 8 9 23 14 37 11 13 -2
26 -1 28 3 3 4 -7 10 -20 13 -14 2 -28 0 -31 -4 -8 -14 -21 -10 -21 6 0 8 7
15 16 15 13 0 13 2 3 9 -8 4 -30 6 -50 4 -49 -5 -91 5 -71 18 10 6 11 9 1 9
-7 0 -10 5 -7 10 3 6 4 10 1 10 -5 0 -38 -57 -35 -62 2 -5 -69 -78 -75 -78 -3
0 -3 87 0 193 6 168 9 197 28 232 18 34 21 56 20 150 -1 73 -7 125 -18 154
-24 65 -21 78 20 91 66 22 156 125 198 224 18 42 34 166 17 131 -7 -15 -10
-16 -10 -4 -1 9 -12 28 -25 42 -13 14 -27 40 -31 58 l-7 31 -25 -41 c-26 -44
-32 -48 -52 -29 -11 10 -13 10 -7 1 4 -7 2 -13 -4 -13 -6 0 -13 7 -16 15 -4 8
-13 15 -21 15 -12 0 -12 -3 1 -21 15 -21 7 -66 -16 -96 -21 -26 -122 -65 -170
-66 -42 -1 -53 4 -83 33 -37 36 -65 107 -65 167 0 18 -4 33 -8 33 -17 0 -47
-126 -47 -197 l0 -72 -80 -10 c-44 -6 -118 -13 -165 -17 -108 -8 -191 -45
-234 -104 -29 -38 -46 -50 -46 -31 0 16 -82 89 -126 111 -68 33 -130 35 -319
6 -174 -26 -209 -34 -258 -56 -24 -12 -33 -11 -75 8 -26 12 -65 28 -86 37
l-39 15 20 23 c60 65 97 203 107 402 2 39 0 61 -4 50 -4 -11 -5 12 -2 50 6 86
12 97 13 24 1 -75 17 -34 18 46 l1 61 122 28 c186 43 217 58 308 146 44 43 80
82 80 89 0 6 -18 14 -40 17 -22 4 -40 9 -40 13 0 3 25 26 55 49 40 31 55 50
55 68 0 22 4 24 45 24 43 0 46 -2 52 -30 7 -36 13 -37 50 -6 60 50 104 66 183
66 55 0 71 3 60 11 -11 8 -7 9 17 4 43 -9 145 4 137 17 -4 7 5 8 26 3 18 -4
30 -3 27 1 -3 5 14 10 37 10 22 1 59 9 81 19 35 15 38 18 20 25 -17 7 -17 9
-3 9 10 1 15 7 12 14 -3 8 3 13 15 13 11 0 18 -2 16 -5 -9 -9 18 -31 29 -24 6
4 21 9 34 11 20 2 22 -1 22 -43 0 -25 4 -45 8 -45 5 0 14 -11 20 -25 6 -13 23
-27 37 -31 20 -5 34 -23 60 -78 53 -112 158 -180 270 -174 53 3 60 5 63 26 3
22 32 32 32 11 0 -5 5 -7 10 -4 6 4 8 11 5 16 -3 5 1 6 9 3 20 -8 21 10 1 29
-8 8 -12 17 -8 20 7 8 32 -16 26 -25 -2 -5 3 -8 11 -8 22 0 28 17 15 41 -7 13
-7 19 0 15 5 -4 15 2 20 13 6 10 18 21 28 25 17 6 17 5 1 -8 -21 -15 -24 -31
-5 -20 7 4 9 3 4 -2 -5 -5 -14 -9 -19 -9 -6 0 -13 -6 -15 -12 -8 -22 15 -14
36 13 35 44 45 91 32 148 -13 60 -53 132 -69 129 -7 -2 -12 3 -12 10 0 7 -7
22 -15 33 -14 18 -15 17 -13 -16 3 -30 7 -35 28 -35 18 0 27 -8 35 -29 7 -21
7 -30 -1 -33 -7 -2 -9 -13 -6 -25 3 -14 1 -19 -6 -14 -6 3 -14 1 -18 -6 -4 -7
-4 -10 1 -6 4 4 14 3 22 -3 10 -9 13 -8 13 5 0 10 5 14 10 11 6 -3 8 -17 6
-31 -3 -14 0 -24 7 -24 7 0 6 -4 -3 -10 -12 -8 -13 -13 -3 -29 11 -17 10 -19
-7 -16 -14 3 -25 -5 -35 -23 -16 -27 -16 -27 -10 -2 6 25 6 25 -12 -2 -11 -18
-27 -28 -41 -28 -13 0 -21 4 -18 8 2 4 1 14 -5 22 -7 13 -9 13 -9 0 -1 -8 -7
-3 -16 13 -11 20 -12 32 -4 47 14 26 12 25 -45 -7 -102 -56 -198 -25 -250 81
-19 40 -25 64 -21 83 6 23 2 20 -19 -14 -29 -48 -48 -54 -69 -20 -26 39 -30
97 -9 150 22 56 82 136 101 137 8 0 16 9 19 20 5 19 16 25 38 20 6 -1 4 4 -2
11 -18 18 -16 27 5 31 14 3 13 5 -6 10 -12 3 -20 2 -16 -3 3 -5 0 -9 -5 -9 -6
0 -11 5 -11 12 0 6 -3 8 -7 5 -3 -4 2 -16 12 -27 10 -11 13 -20 7 -20 -6 0
-14 5 -17 10 -10 16 -45 12 -52 -6 -5 -13 -7 -13 -14 -2 -11 17 -11 31 0 23 5
-3 17 2 25 11 9 8 16 12 16 7 0 -4 7 3 16 15 8 12 20 20 25 16 5 -3 8 -2 7 3
-2 4 0 9 4 11 16 7 77 62 150 135 153 154 241 325 242 472 0 109 -19 143 -136
240 -152 126 -551 383 -753 485 -244 123 -314 152 -560 229 -271 84 -475 127
-815 168 -202 24 -587 24 -765 0 -71 -10 -138 -20 -147 -23 -11 -3 -44 19 -95
63 -347 305 -688 492 -1012 558 -92 19 -212 32 -251 27z m246 -133 c264 -57
525 -190 809 -412 61 -47 134 -110 163 -140 l53 -54 -36 -27 -37 -28 -14 21
c-47 67 -300 270 -490 394 -196 127 -348 190 -549 227 -67 12 -127 29 -135 37
-13 14 -7 15 62 9 42 -3 121 -15 174 -27z m2033 -604 c518 -60 898 -168 1303
-371 201 -101 494 -284 688 -431 104 -78 179 -149 145 -137 -61 22 -332 172
-471 260 -253 161 -514 291 -750 375 -131 46 -413 126 -561 158 -307 67 -673
97 -879 72 -100 -12 -554 -87 -586 -97 -10 -3 -18 0 -18 6 0 18 93 112 125
125 35 15 199 42 335 55 131 12 507 4 669 -15z m-4369 -271 c198 -92 400 -254
516 -414 68 -93 191 -306 182 -315 -4 -4 -72 86 -128 170 -62 93 -176 230
-239 288 -78 72 -148 119 -279 188 -102 53 -207 140 -152 124 14 -3 59 -22
100 -41z m2946 11 c-11 -8 -22 -12 -25 -9 -6 6 19 24 34 24 6 -1 1 -7 -9 -15z
m-90 -54 c-3 -5 -54 -39 -113 -77 -60 -37 -168 -108 -242 -157 -73 -49 -130
-83 -126 -75 3 7 0 6 -7 -4 -8 -9 -69 -56 -135 -105 -67 -48 -227 -168 -355
-265 -314 -237 -404 -290 -563 -334 -78 -22 -241 -28 -300 -11 l-50 14 82 6
c202 18 391 105 598 278 69 58 137 99 162 99 7 0 12 5 10 11 -3 14 306 296
370 338 25 17 50 28 55 25 5 -4 7 -21 4 -40 l-7 -33 28 12 c37 16 110 64 118
76 3 6 64 40 135 75 72 36 137 72 146 81 22 22 102 61 141 70 18 3 35 11 38
16 4 5 8 9 11 9 3 0 3 -4 0 -9z m2329 -280 l40 -19 -50 1 c-28 0 -60 -5 -70
-11 -19 -11 -18 -11 6 -12 40 0 55 -24 35 -55 -20 -31 -59 -33 -79 -4 -14 20
-15 19 -32 -24 -11 -31 -16 -66 -13 -111 1 -36 0 -66 -4 -66 -20 0 -61 75 -66
119 -8 90 33 157 114 186 52 19 72 18 119 -4z m105 -286 c10 -13 10 -19 -5
-35 -9 -10 -23 -16 -31 -13 -17 6 -19 50 -1 56 20 9 24 8 37 -8z m-1683 -177
c-3 -8 -6 -5 -6 6 -1 11 2 17 5 13 3 -3 4 -12 1 -19z m37 -5 c-6 -2 -9 -61 -8
-139 1 -74 0 -134 -1 -132 -6 6 -17 125 -16 188 0 99 0 102 11 95 6 -3 10 0
11 7 0 9 2 9 6 -1 3 -8 2 -16 -3 -18z m1096 -18 c190 -46 412 -87 545 -101 82
-8 150 -16 150 -17 1 -1 9 -14 18 -29 22 -36 42 -35 76 1 l26 28 220 6 c246 6
390 27 615 92 68 19 125 33 128 30 10 -9 -49 -139 -94 -206 -85 -128 -279
-287 -438 -359 -150 -68 -366 -120 -500 -120 -181 0 -314 84 -651 410 -77 74
-164 153 -194 174 -98 72 -188 60 -289 -37 -135 -130 -162 -379 -63 -576 95
-187 293 -300 575 -326 37 -4 64 -10 60 -15 -26 -24 -527 -140 -819 -189 -198
-33 -542 -80 -670 -91 -217 -18 -597 -10 -772 16 l-42 6 82 112 c44 61 155
221 245 356 l165 245 151 41 c83 22 175 49 203 59 l52 19 21 -27 c24 -30 68
-59 55 -35 -5 7 -15 21 -23 31 -20 23 -24 87 -5 80 7 -3 13 -9 13 -14 0 -5 12
-4 28 2 15 6 28 10 30 10 1 -1 15 5 31 13 28 15 29 15 55 -24 14 -22 31 -40
36 -40 13 0 13 6 -4 39 -14 26 -18 73 -6 67 3 -2 14 0 25 4 15 6 26 1 43 -19
l22 -26 -2 31 c-3 29 4 35 109 107 61 42 151 107 200 145 117 92 148 109 235
132 60 17 93 19 183 15 61 -2 139 -12 175 -20z m-1143 -82 c-3 -10 -5 -4 -5
12 0 17 2 24 5 18 2 -7 2 -21 0 -30z m1010 -39 c29 -20 53 -39 53 -43 0 -11
-159 -83 -170 -76 -12 7 -13 42 -4 109 6 43 8 46 38 46 19 0 51 -14 83 -36z
m168 -144 c51 -51 56 -60 39 -65 -10 -4 -42 -15 -69 -26 -76 -29 -79 -28 -72
34 7 58 25 117 36 117 4 0 33 -27 66 -60z m-1254 27 c-10 -9 -11 -8 -5 6 3 10
9 15 12 12 3 -3 0 -11 -7 -18z m-4 -32 c0 -8 -4 -12 -9 -9 -5 3 -6 10 -3 15 9
13 12 11 12 -6z m133 -19 c1 10 40 -87 40 -97 0 -4 -7 -9 -15 -13 -20 -7 -42
18 -57 65 -10 34 -9 42 3 50 10 6 10 9 2 9 -7 0 -13 6 -13 13 1 6 10 1 20 -12
11 -13 20 -19 20 -15z m-90 -64 c0 -8 5 -10 13 -6 9 6 9 5 0 -8 -7 -8 -10 -17
-7 -21 3 -3 -2 -4 -13 -2 -10 1 -17 8 -15 15 1 7 -3 18 -9 26 -9 11 -8 14 2
15 10 0 11 2 1 6 -6 2 -9 9 -6 14 7 12 33 -19 34 -39z m1379 -69 l63 -56 -67
-29 c-87 -37 -95 -36 -95 7 0 44 19 135 29 135 4 0 36 -25 70 -57z m126 -113
c10 -12 34 -30 52 -41 18 -11 33 -24 33 -27 0 -8 -123 -62 -141 -62 -13 0 -6
81 11 125 12 30 21 31 45 5z m-4371 -22 c-3 -5 4 -25 17 -46 l21 -37 -25 30
c-15 17 -26 26 -27 21 0 -6 -6 -1 -14 10 -15 19 -8 31 19 31 8 0 12 -4 9 -9z
m1686 -68 c-6 -11 -13 -20 -16 -20 -2 0 0 9 6 20 6 11 13 20 16 20 2 0 0 -9
-6 -20z m3751 -12 c11 -21 11 -22 -4 -10 -13 11 -16 10 -19 -5 -3 -13 -6 -10
-10 10 -7 34 16 37 33 5z m-894 -25 l46 -27 -63 -28 c-34 -16 -64 -27 -66 -25
-3 3 10 61 21 95 6 17 10 16 62 -15z m853 15 c0 -4 -6 -8 -14 -8 -8 0 -17 4
-20 8 -2 4 4 8 15 8 10 0 19 -4 19 -8z m-1646 -70 c-19 -40 -38 -74 -43 -76
-10 -3 -64 79 -80 121 l-11 27 85 0 84 0 -35 -72z m-2130 -45 c-25 -60 -67
-153 -93 -208 -27 -55 -70 -158 -96 -230 -88 -245 -294 -617 -402 -727 -26
-26 -44 -51 -40 -54 13 -14 145 47 248 114 124 82 195 145 297 266 42 50 96
114 121 141 69 76 272 312 327 380 27 33 80 96 119 140 38 44 94 112 124 150
64 83 82 101 56 60 -90 -146 -612 -799 -773 -967 -189 -197 -397 -321 -579
-344 -48 -6 -53 -5 -53 12 0 11 66 127 147 259 80 132 198 332 261 445 63 113
136 243 162 290 26 47 85 151 130 233 45 81 83 147 85 147 2 0 -17 -48 -41
-107z m3760 91 c9 -3 13 -11 10 -16 -4 -6 -1 -14 6 -18 9 -6 3 -13 -20 -25
-18 -9 -29 -20 -23 -24 14 -9 24 -41 12 -41 -6 0 -7 -5 -3 -12 5 -7 3 -8 -6
-3 -10 6 -12 4 -7 -7 4 -12 1 -14 -14 -11 -11 3 -19 0 -19 -6 0 -7 -4 -9 -10
-6 -5 3 -10 2 -10 -3 0 -5 -12 -14 -26 -21 -20 -9 -25 -9 -21 1 2 7 -5 18 -17
25 -19 11 -19 12 -3 13 13 0 17 6 15 22 -3 22 -38 34 -66 23 -12 -5 -12 -8 2
-23 22 -25 20 -32 -9 -32 -14 0 -25 4 -25 9 0 5 10 7 23 5 l22 -5 -23 10 c-12
6 -29 8 -37 4 -10 -3 -15 0 -13 8 2 11 -12 14 -62 13 -47 -1 -58 1 -41 7 15 6
21 14 17 24 -3 8 -1 15 4 15 6 0 10 -5 10 -10 0 -6 11 -8 27 -4 19 5 30 2 38
-10 12 -16 14 -16 30 0 13 14 14 19 3 25 -11 7 -10 11 2 19 8 5 22 7 31 5 9
-3 22 1 28 9 7 8 20 12 28 9 11 -4 14 -2 9 5 -4 7 -2 12 3 12 6 0 11 -6 11
-12 0 -9 3 -9 9 1 5 8 16 11 24 8 20 -7 15 -42 -6 -41 -10 1 -14 -4 -10 -15 3
-11 -1 -10 -14 5 l-20 22 -13 -22 c-12 -19 -12 -20 4 -7 14 12 16 11 14 -10
-2 -13 2 -24 9 -24 6 0 14 -3 18 -6 13 -13 60 7 62 27 3 18 2 18 -6 -1 -8 -16
-10 -17 -10 -3 -1 9 -6 18 -11 20 -6 2 -1 13 10 26 12 12 18 27 15 32 -3 6 -1
10 4 10 6 0 11 -4 11 -9 0 -5 6 -11 13 -14 8 -3 14 1 14 9 0 7 -4 11 -9 8 -4
-3 -8 0 -8 5 0 13 3 13 24 5z m71 -4 c3 -6 -1 -7 -9 -4 -18 7 -21 14 -7 14 6
0 13 -4 16 -10z m-5355 -5 c0 -2 -6 -8 -13 -14 -10 -8 -14 -7 -14 2 0 8 6 14
14 14 7 0 13 -1 13 -2z m4564 -34 c3 -4 -16 -26 -42 -48 l-48 -41 1 35 c0 25
6 37 25 47 29 16 57 19 64 7z m-254 -28 c0 -31 -17 -50 -31 -36 -10 10 -9 17
6 33 22 24 25 25 25 3z m717 -15 c-3 -7 -5 -2 -5 12 0 14 2 19 5 13 2 -7 2
-19 0 -25z m-20 16 c-3 -3 -12 -4 -19 -1 -8 3 -5 6 6 6 11 1 17 -2 13 -5z
m284 -26 c-11 -10 -13 -10 -7 0 4 6 2 12 -4 12 -6 0 -8 5 -4 11 4 8 9 8 17 0
8 -8 7 -14 -2 -23z m-367 3 c3 -5 -10 -9 -28 -8 -19 0 -33 5 -30 9 7 11 51 10
58 -1z m-496 -43 c1 -35 -27 -66 -40 -45 -6 9 -8 9 -8 0 0 -6 4 -14 10 -18 23
-14 -4 -30 -56 -33 l-55 -3 15 29 c17 32 13 42 -17 42 -17 0 -18 2 -6 17 9 11
10 14 2 9 -9 -5 -11 -2 -7 8 5 12 11 13 25 5 10 -5 19 -14 19 -20 0 -6 4 -8 9
-5 5 3 14 -1 21 -9 15 -18 40 -20 40 -2 0 8 3 7 10 -3 5 -8 12 -11 16 -7 4 4
3 12 -3 18 -9 9 -8 17 0 30 17 27 24 23 25 -13z m322 17 c0 -8 -8 -15 -17 -15
-15 0 -16 2 -3 10 10 6 -4 10 -45 13 l-60 3 63 2 c49 2 62 -1 62 -13z m36 2
c8 3 14 1 14 -5 0 -5 -9 -12 -20 -15 -16 -4 -20 0 -19 16 0 12 3 17 5 10 3 -7
12 -9 20 -6z m-946 -83 c0 -65 0 -66 -24 -60 -30 7 -136 68 -136 77 0 8 114
46 143 48 15 1 17 -8 17 -65z m180 -64 l0 -50 -42 6 c-24 4 -54 11 -68 16 -23
9 -21 11 40 43 36 19 66 34 68 34 1 1 2 -22 2 -49z m151 -15 c-14 -40 -19 -45
-46 -45 -16 0 -40 3 -53 6 -20 6 -17 10 30 44 29 21 60 39 69 39 15 1 15 -2 0
-44z m912 25 c3 -11 1 -18 -4 -14 -5 3 -9 12 -9 20 0 20 7 17 13 -6z m-716
-32 c-20 -13 -27 -9 -27 17 0 24 1 24 20 8 14 -13 16 -19 7 -25z m-151 -40
c-10 -6 -20 -7 -24 -3 -9 8 20 25 31 18 5 -3 2 -10 -7 -15z m-3521 2 c3 -5 2
-10 -4 -10 -5 0 -13 5 -16 10 -3 6 -2 10 4 10 5 0 13 -4 16 -10z m632 3 c-59
-107 -113 -183 -126 -178 -8 3 -34 8 -56 12 -35 4 -58 -2 -151 -45 -111 -51
-174 -71 -174 -55 0 5 17 38 39 73 44 74 41 93 -21 112 -21 6 -46 19 -57 30
-11 10 -32 18 -46 18 -14 0 -25 5 -25 11 0 8 12 9 43 3 59 -12 411 -4 488 11
80 16 91 17 86 8z m3510 1 c-3 -3 -12 -4 -19 -1 -8 3 -5 6 6 6 11 1 17 -2 13
-5z m-974 -221 c-7 -2 -21 -2 -30 0 -10 3 -4 5 12 5 17 0 24 -2 18 -5z m-148
-298 c-11 -227 -20 -204 -17 42 1 131 3 243 3 248 1 6 6 -28 11 -75 5 -47 6
-143 3 -215z m-545 -168 c35 -51 150 -207 240 -322 26 -33 49 -64 52 -70 4 -6
-52 -10 -160 -10 -180 0 -263 -13 -409 -61 -128 -43 -257 -116 -349 -196 l-35
-31 -35 42 c-42 48 -135 117 -214 156 -200 101 -434 127 -690 79 l-35 -7 56
59 c68 72 161 181 254 298 l70 88 75 -6 c255 -20 472 -26 618 -16 154 10 417
37 437 45 6 2 28 4 50 4 37 0 42 -3 75 -52z m-2327 -651 c99 -30 165 -60 173
-80 7 -18 -84 -302 -102 -317 -10 -8 -31 -5 -88 15 -197 68 -370 54 -514 -40
-60 -39 -93 -93 -73 -117 17 -21 90 -37 168 -37 101 0 279 -18 353 -36 240
-59 365 -233 330 -459 -21 -140 -120 -278 -250 -352 -219 -124 -566 -147 -843
-56 -109 36 -171 78 -174 118 -3 42 97 279 120 283 9 2 43 -13 75 -33 126 -77
304 -113 434 -86 155 33 249 124 208 202 -22 41 -67 52 -245 60 -224 10 -303
27 -401 84 -156 92 -208 342 -112 544 58 122 197 237 355 292 113 40 180 49
343 45 132 -3 168 -8 243 -30z m1163 -6 c202 -51 342 -172 396 -343 31 -96 28
-248 -5 -352 -33 -102 -67 -155 -150 -232 -124 -115 -274 -170 -494 -180
l-133 -6 1 -76 c0 -42 4 -116 8 -166 4 -49 5 -96 3 -102 -3 -9 -32 -13 -96
-13 -50 -1 -125 -7 -166 -14 -62 -12 -79 -12 -96 -1 -24 15 -23 -3 -44 895 -6
234 -12 449 -14 478 -7 83 6 91 148 91 64 0 149 6 193 15 119 23 120 23 249
25 92 1 140 -4 200 -19z m1409 6 c131 -10 356 -85 355 -118 -1 -20 -87 -318
-94 -325 -3 -4 -52 8 -109 26 -131 42 -303 53 -406 26 -123 -32 -236 -110
-229 -158 5 -39 50 -50 243 -58 271 -12 419 -52 519 -140 81 -71 123 -224 96
-352 -41 -197 -197 -342 -434 -402 -246 -62 -473 -57 -701 16 -106 34 -140 59
-130 98 14 57 88 257 101 270 11 13 24 9 91 -22 190 -89 391 -100 539 -30 72
34 106 74 102 121 -6 64 -31 74 -230 83 -256 11 -379 45 -471 129 -100 92
-141 213 -119 356 7 41 23 99 37 129 67 140 232 260 440 320 84 24 249 45 305
39 14 -2 57 -5 95 -8z m1790 -23 c13 -13 16 -27 11 -62 -13 -109 -17 -672 -7
-992 7 -225 8 -356 2 -372 -8 -21 -19 -27 -58 -32 -26 -4 -99 -16 -162 -27
-125 -22 -156 -16 -167 28 -3 12 -9 134 -12 271 -6 212 -9 248 -22 246 -8 -1
-102 -14 -209 -28 -107 -14 -197 -28 -200 -31 -3 -3 -6 -100 -6 -216 0 -242 4
-231 -97 -242 -35 -3 -100 -13 -145 -22 -94 -19 -131 -14 -137 19 -3 12 -8
324 -11 692 -7 642 -6 671 12 693 15 20 40 26 178 46 128 19 165 22 185 12
l25 -11 -4 -302 c-3 -252 -1 -303 10 -307 8 -3 104 7 214 22 l200 27 5 267 c4
226 7 270 21 283 10 11 49 19 115 26 54 6 122 14 149 18 77 13 92 12 110 -6z
m375 -724 c0 -6 -5 -7 -11 -3 -6 3 -24 -3 -40 -15 -16 -12 -29 -17 -29 -11 0
5 6 10 13 10 8 0 7 4 -3 10 -13 8 -13 10 3 11 30 3 35 4 43 11 8 9 24 1 24
-13z m-73 -91 c-3 -7 -5 -2 -5 12 0 14 2 19 5 13 2 -7 2 -19 0 -25z m148 -18
c3 -5 1 -10 -4 -10 -6 0 -11 5 -11 10 0 6 2 10 4 10 3 0 8 -4 11 -10z m21 -37
c-3 -20 -22 -28 -31 -14 -3 7 0 8 10 5 11 -5 14 -2 9 10 -3 9 -2 16 4 16 6 0
9 -8 8 -17z m-1078 -781 c-202 -173 -522 -329 -827 -403 -140 -35 -160 -41
-521 -176 -450 -168 -491 -178 -730 -177 -153 0 -191 4 -297 27 -152 34 -354
91 -571 161 -92 30 -219 68 -282 86 -139 38 -158 49 -144 87 5 15 17 29 27 31
9 2 92 -27 184 -63 182 -72 310 -108 528 -149 275 -51 513 -51 818 -1 335 55
477 107 1008 369 119 58 228 106 242 106 14 0 104 12 199 26 210 31 260 51
321 129 l41 53 18 -40 18 -40 -32 -26z m-3950 -117 c-7 -33 6 -40 34 -21 33
23 90 20 125 -6 110 -82 123 -94 138 -130 26 -65 20 -113 -19 -155 -32 -35
-38 -37 -105 -41 -62 -4 -76 -1 -113 21 -111 66 -161 134 -173 239 -6 56 -6
57 21 60 15 2 29 9 32 16 2 7 -2 10 -12 6 -30 -12 -16 6 17 20 49 22 60 20 55
-9z"/>
<path d="M7796 6013 c-6 -14 -5 -15 5 -6 7 7 10 15 7 18 -3 3 -9 -2 -12 -12z"/>
<path d="M6897 5934 c7 -3 9 -12 6 -21 -4 -11 -2 -14 5 -9 18 11 14 36 -5 35
-10 0 -13 -3 -6 -5z"/>
<path d="M4325 4144 c-11 -3 -45 -9 -76 -15 l-56 -11 -6 -136 c-10 -193 -9
-290 3 -297 6 -4 42 -2 80 4 207 32 302 129 304 308 1 72 -2 84 -22 106 -36
38 -144 57 -227 41z"/>
<path d="M7459 8487 c-13 -18 -23 -36 -21 -40 1 -5 -2 -6 -8 -2 -5 3 -10 1
-10 -4 0 -6 -5 -11 -11 -11 -5 0 -7 6 -3 13 5 8 2 8 -9 -2 -19 -15 -23 -26 -6
-15 8 4 9 -3 4 -25 -5 -26 -4 -31 12 -31 15 0 16 2 3 11 -11 8 -8 9 13 4 19
-4 26 -2 22 4 -3 6 0 9 7 6 21 -8 78 32 78 56 0 59 -39 79 -71 36z"/>
<path d="M7311 8461 c6 -17 16 -31 22 -31 6 0 7 3 4 7 -4 3 -2 12 5 20 13 16
11 18 -19 27 -21 7 -22 5 -12 -23z"/>
<path d="M7346 8412 c-2 -4 4 -8 14 -8 10 0 16 4 14 8 -3 4 -9 8 -14 8 -5 0
-11 -4 -14 -8z"/>
<path d="M6576 8051 c14 -15 64 -25 64 -13 0 12 -24 22 -53 22 -13 0 -17 -4
-11 -9z"/>
<path d="M3499 7799 c-9 -17 -8 -24 4 -36 12 -13 15 -12 20 6 3 12 1 19 -4 15
-5 -3 -9 1 -9 10 0 8 6 17 13 19 9 4 9 6 0 6 -7 1 -17 -9 -24 -20z"/>
<path d="M3530 7741 c0 -6 4 -13 10 -16 6 -3 7 1 4 9 -7 18 -14 21 -14 7z"/>
<path d="M3445 7549 c-4 -6 -5 -12 -2 -15 2 -3 7 2 10 11 7 17 1 20 -8 4z"/>
<path d="M3070 7453 c0 -12 49 -73 50 -62 0 3 -11 20 -25 39 -14 19 -25 29
-25 23z"/>
<path d="M3380 7420 c0 -5 7 -7 15 -4 8 4 15 8 15 10 0 2 -7 4 -15 4 -8 0 -15
-4 -15 -10z"/>
<path d="M3346 7402 c-3 -5 1 -9 9 -9 8 0 15 4 15 9 0 4 -4 8 -9 8 -6 0 -12
-4 -15 -8z"/>
<path d="M3405 7369 c-39 -38 -23 -38 18 1 18 16 28 30 22 29 -5 0 -23 -13
-40 -30z"/>
<path d="M3288 7313 c7 -3 16 -2 19 1 4 3 -2 6 -13 5 -11 0 -14 -3 -6 -6z"/>
<path d="M3104 7038 c2 -16 -2 -29 -10 -32 -8 -3 -11 -11 -9 -18 3 -7 -9 -21
-25 -30 -17 -10 -28 -13 -25 -8 3 6 2 10 -3 10 -5 0 -12 -9 -15 -21 -3 -12
-10 -18 -16 -14 -6 3 -9 10 -6 14 2 5 -5 17 -16 27 -15 14 -20 15 -17 4 2 -8
7 -18 13 -22 5 -4 6 -10 2 -14 -4 -4 -15 -1 -25 7 -10 8 -7 4 6 -8 33 -32 74
-29 115 7 38 33 47 61 35 100 -8 25 -8 25 -4 -2z"/>
<path d="M2876 7036 c5 -13 4 -17 -4 -12 -7 4 -12 3 -12 -3 0 -5 4 -12 9 -15
14 -9 23 26 11 38 -8 8 -9 6 -4 -8z"/>
<path d="M2908 6997 c7 -8 8 -18 4 -22 -4 -5 -1 -5 6 -1 17 10 15 23 -4 30
-13 5 -14 4 -6 -7z"/>
<path d="M8056 6277 c3 -10 9 -15 12 -12 3 3 0 11 -7 18 -10 9 -11 8 -5 -6z"/>
<path d="M8124 6235 c1 -17 5 -36 9 -42 5 -9 -1 -9 -23 -3 -23 7 -30 6 -27 -3
2 -7 13 -11 23 -9 18 2 18 2 0 -13 -19 -14 -19 -15 8 -13 36 3 39 13 22 68
-11 36 -14 39 -12 15z"/>
<path d="M7696 5882 c-3 -6 -1 -14 5 -17 14 -9 20 -2 10 14 -6 8 -11 9 -15 3z"/>
<path d="M2490 5657 c0 -59 52 -117 105 -117 36 0 65 33 65 74 0 38 -16 57
-26 32 -5 -12 -20 -16 -60 -16 -48 0 -55 3 -68 28 l-15 27 -1 -28z"/>
<path d="M7684 5468 c-1 -41 -6 -55 -24 -70 -25 -20 -71 -24 -101 -8 -16 9
-19 7 -19 -8 0 -10 9 -27 19 -36 11 -10 17 -24 14 -32 -3 -8 0 -14 6 -14 6 0
11 5 11 10 0 6 10 8 24 4 14 -3 34 -3 45 1 27 8 61 66 61 104 0 27 -23 101
-32 101 -2 0 -3 -23 -4 -52z"/>
<path d="M7250 5269 c0 -41 -24 -69 -61 -69 -21 -1 -20 -3 14 -21 39 -21 46
-39 22 -59 -21 -18 -77 -4 -105 25 -13 14 -26 25 -29 25 -3 0 -6 -20 -6 -44 0
-24 3 -39 7 -33 5 8 8 6 9 -5 1 -10 3 -22 4 -28 1 -5 3 -14 4 -19 0 -6 9 -10
19 -10 9 0 40 -3 69 -7 49 -6 54 -4 82 23 54 54 52 160 -3 228 l-25 30 -1 -36z
m-120 -219 c0 -5 -2 -10 -4 -10 -3 0 -8 5 -11 10 -3 6 -1 10 4 10 6 0 11 -4
11 -10z"/>
<path d="M3060 5227 c0 -80 84 -169 143 -151 38 11 47 25 47 72 l0 46 -20 -22
c-42 -44 -120 -13 -106 42 5 20 1 27 -26 40 -17 9 -33 16 -35 16 -1 0 -3 -19
-3 -43z"/>
<path d="M7160 5000 c0 -6 7 -10 15 -10 8 0 15 2 15 4 0 2 -7 6 -15 10 -8 3
-15 1 -15 -4z"/>
<path d="M7218 4973 c7 -3 16 -2 19 1 4 3 -2 6 -13 5 -11 0 -14 -3 -6 -6z"/>
<path d="M8047 4939 c7 -7 15 -10 18 -7 3 3 -2 9 -12 12 -14 6 -15 5 -6 -5z"/>
<path d="M2550 4830 c0 -5 14 -16 30 -25 35 -18 39 -46 10 -75 -28 -28 -58
-32 -117 -17 l-53 14 0 -25 c0 -15 13 -37 33 -56 27 -25 41 -31 74 -30 55 2
80 18 98 61 31 74 4 163 -51 163 -13 0 -24 -4 -24 -10z"/>
<path d="M8176 3925 c-9 -26 -7 -32 5 -12 6 10 9 21 6 23 -2 3 -7 -2 -11 -11z"/>
<path d="M8129 3808 c-6 -21 -5 -38 2 -38 5 0 9 9 9 20 0 16 -7 28 -11 18z"/>
<path d="M8289 3692 c-10 -30 -20 -37 -43 -33 -5 1 -4 -4 2 -12 8 -9 8 -17 1
-24 -8 -8 -7 -13 2 -18 8 -5 10 -4 5 3 -4 7 -3 12 1 12 11 0 56 91 49 98 -3 3
-11 -9 -17 -26z"/>
<path d="M1918 3673 c10 -4 10 -8 1 -19 -10 -12 -9 -13 6 -8 14 6 16 4 10 -6
-5 -9 -4 -11 3 -6 15 9 -3 46 -21 45 -9 0 -8 -2 1 -6z"/>
<path d="M2043 3639 c-8 -8 -9 -17 -4 -23 6 -7 4 -19 -6 -31 -12 -16 -14 -17
-11 -3 3 16 1 18 -24 18 -9 0 -9 -3 0 -12 7 -7 12 -21 12 -31 0 -14 -5 -17
-17 -12 -15 5 -14 3 2 -13 11 -10 22 -16 25 -13 10 12 29 10 24 -2 -3 -8 1
-14 8 -14 9 0 13 12 13 34 -1 18 2 33 7 33 5 0 7 13 6 29 -1 16 -5 28 -9 25
-4 -2 -9 3 -11 11 -2 13 -6 14 -15 4z m24 -51 c-3 -8 -6 -5 -6 6 -1 11 2 17 5
13 3 -3 4 -12 1 -19z"/>
<path d="M2096 3595 c-3 -8 -1 -15 4 -15 6 0 10 7 10 15 0 8 -2 15 -4 15 -2 0
-6 -7 -10 -15z"/>
<path d="M6656 2108 c6 -61 -8 -95 -49 -118 -22 -12 -30 -13 -47 -2 -17 10
-24 10 -45 -4 -40 -26 -94 -23 -120 9 -19 21 -24 23 -29 11 -12 -31 -5 -53 24
-77 43 -37 92 -50 174 -45 61 3 79 8 109 31 81 61 88 152 18 225 -33 33 -40
27 -35 -30z"/>
<path d="M6450 2120 c8 -5 22 -10 30 -10 13 0 13 1 0 10 -8 5 -22 10 -30 10
-13 0 -13 -1 0 -10z"/>
<path d="M3353 1874 c-7 -3 -10 -11 -7 -19 16 -41 -61 -105 -99 -83 -22 12
-21 26 1 52 17 21 17 21 -5 2 -13 -11 -23 -27 -23 -36 0 -10 -13 -23 -28 -29
-35 -15 -73 -2 -96 31 l-16 22 0 -30 c0 -16 7 -40 16 -52 33 -47 116 -67 159
-39 11 7 40 15 65 16 58 4 74 13 94 55 37 79 5 137 -61 110z"/>
<path d="M6160 1642 c0 -25 53 -62 90 -62 30 0 80 37 80 58 0 12 -59 21 -66
10 -7 -11 -61 -10 -85 2 -16 9 -19 7 -19 -8z"/>
</g>
</svg>
